<svg id="Line" xmlns="http://www.w3.org/2000/svg" viewBox="0 0 64 64"><defs><style>.cls-1{fill:#231f20;}</style></defs><title>1</title><path class="cls-1" d="M32,6A26,26,0,1,0,58,32,26.02947,26.02947,0,0,0,32,6Zm0,50A24,24,0,1,1,56,32,24.0275,24.0275,0,0,1,32,56Z"/><path class="cls-1" d="M41.38867,36.1626a11.76225,11.76225,0,0,1-9.39551,4.42676,11.78662,11.78662,0,0,1-9.35107-4.36817,1.00019,1.00019,0,1,0-1.584,1.22168,13.79757,13.79757,0,0,0,10.93505,5.14649,13.7718,13.7718,0,0,0,10.98829-5.2168,1.00012,1.00012,0,1,0-1.59278-1.21Z"/><path class="cls-1" d="M21.35889,27.17383a2.14819,2.14819,0,1,1,4.29638,0,1,1,0,0,0,2,0,4.14819,4.14819,0,1,0-8.29638,0,1,1,0,0,0,2,0Z"/><path class="cls-1" d="M40.49316,23.02539a4.153,4.153,0,0,0-4.14843,4.14844,1,1,0,0,0,2,0,2.14819,2.14819,0,1,1,4.29638,0,1,1,0,0,0,2,0A4.15285,4.15285,0,0,0,40.49316,23.02539Z"/></svg>